<svg width="16" height="18" viewBox="0 0 16 18" fill="none" xmlns="http://www.w3.org/2000/svg">
<path fill-rule="evenodd" clip-rule="evenodd" d="M1.88571 10.439L1.88591 10.44C2.42781 13.3259 4.7445 15.6305 7.56502 16.0971L7.56782 16.0976C9.65899 16.4472 11.6017 15.8492 13.0708 14.6529C8.18415 12.854 5.22791 7.50325 6.35428 2.21666C3.23702 3.37398 1.1902 6.74604 1.88571 10.439ZM7.00642 0.163394C2.42169 1.10344 -0.785713 5.71565 0.168573 10.7826C0.850762 14.4157 3.74569 17.2914 7.28786 17.8774C10.3674 18.3922 13.2049 17.247 15.1034 15.1717C15.1124 15.1618 15.1212 15.1521 15.1302 15.1423C15.2541 15.0056 15.3741 14.8649 15.4897 14.7204C15.492 14.7176 15.4942 14.7148 15.4964 14.7119C15.6449 14.5261 15.7862 14.334 15.9202 14.1362C16.1038 13.8567 15.9552 13.4601 15.6316 13.424C15.3178 13.3875 15.0107 13.3346 14.7105 13.2663C14.6925 13.2622 14.6745 13.258 14.6565 13.2538C14.5799 13.2359 14.5036 13.2169 14.4278 13.1968L14.4229 13.1956C9.64343 11.9317 6.75878 6.71684 8.271 1.80739C8.27162 1.80556 8.27214 1.80374 8.27275 1.80192C8.30013 1.71307 8.32899 1.62431 8.35934 1.53569C8.36047 1.53238 8.36161 1.52906 8.36275 1.52574C8.46569 1.22596 8.58533 0.927638 8.72221 0.63173C8.86215 0.325221 8.61726 -0.0173475 8.28491 0.000682452C8.04466 0.013069 7.80729 0.0353268 7.57298 0.0670595C7.56914 0.0675914 7.5652 0.0681233 7.56135 0.0686552C7.38512 0.0927793 7.21064 0.122267 7.03816 0.156957C7.02758 0.159084 7.017 0.16123 7.00642 0.163394Z" fill="white"/>
</svg>
