<svg width="19" height="18" viewBox="0 0 19 18" fill="none" xmlns="http://www.w3.org/2000/svg">
<path d="M3.8166 2.6209L4.13602 2.94031C4.45543 3.25154 4.45543 3.7757 4.13602 4.08692L4.12783 4.09511C3.80841 4.41453 3.30063 4.41453 2.98121 4.09511L2.6618 3.7757C2.34239 3.46448 2.34239 2.9485 2.6618 2.62909L2.66999 2.6209C2.98121 2.30967 3.49719 2.30148 3.8166 2.6209Z" fill="#F4B552"/>
<path d="M0.810819 8.14905H1.64621C2.09666 8.14905 2.45703 8.50941 2.45703 8.96806V8.97625C2.45703 9.4267 2.09666 9.78706 1.63802 9.77887H0.810819C0.360364 9.77887 0 9.41851 0 8.96806V8.95987C0 8.50941 0.360364 8.14905 0.810819 8.14905Z" fill="#F4B552"/>
<path d="M9.00907 0H9.01726C9.46772 0 9.82808 0.360364 9.82808 0.810819V1.60526C9.82808 2.05571 9.46772 2.41608 9.00907 2.40789H9.00088C8.55043 2.40789 8.19006 2.04752 8.19006 1.59707V0.810819C8.19006 0.360364 8.55043 0 9.00907 0Z" fill="#F4B552"/>
<path d="M14.2016 2.62083C14.521 2.30961 15.037 2.30961 15.3564 2.62902C15.6758 2.94843 15.6758 3.45622 15.3564 3.77563L15.037 4.09505C14.7258 4.41446 14.2098 4.41446 13.8904 4.09505L13.8822 4.08686C13.5628 3.77563 13.5628 3.25966 13.8822 2.94024L14.2016 2.62083Z" fill="#F4B552"/>
<path d="M14.1934 15.3155L13.874 14.996C13.5546 14.6766 13.5546 14.1688 13.8822 13.8412C14.1934 13.53 14.7094 13.5218 15.0288 13.8412L15.3482 14.1606C15.6676 14.4801 15.6676 14.996 15.3482 15.3155C15.0288 15.6349 14.5128 15.6349 14.1934 15.3155Z" fill="#F4B552"/>
<path d="M15.5612 8.96806V8.95987C15.5612 8.50941 15.9215 8.14905 16.372 8.14905H17.1992C17.6496 8.14905 18.01 8.50941 18.01 8.95987V8.96806C18.01 9.41851 17.6496 9.77887 17.1992 9.77887H16.372C15.9215 9.77887 15.5612 9.41851 15.5612 8.96806Z" fill="#F4B552"/>
<path fill-rule="evenodd" clip-rule="evenodd" d="M4.09503 8.96813C4.09503 6.25721 6.29817 4.05408 9.00908 4.05408C11.72 4.05408 13.9231 6.25721 13.9231 8.96813C13.9231 11.679 11.72 13.8822 9.00908 13.8822C6.29817 13.8822 4.09503 11.679 4.09503 8.96813ZM9.00908 12.2851C10.8184 12.2851 12.2851 10.8184 12.2851 9.00908C12.2851 7.19978 10.8184 5.73305 9.00908 5.73305C7.19978 5.73305 5.73305 7.19978 5.73305 9.00908C5.73305 10.8184 7.19978 12.2851 9.00908 12.2851Z" fill="#F4B552"/>
<path d="M9.00907 17.9362H9.00088C8.55043 17.9362 8.19006 17.5758 8.19006 17.1254V16.3391C8.19006 15.8887 8.55043 15.5283 9.00088 15.5283H9.00907C9.45953 15.5283 9.81989 15.8887 9.81989 16.3391V17.1254C9.81989 17.5758 9.45953 17.9362 9.00907 17.9362Z" fill="#F4B552"/>
<path d="M3.8166 15.3073C3.49719 15.6267 2.98121 15.6267 2.6618 15.3073C2.34238 14.9879 2.34238 14.4801 2.65361 14.1525L2.97302 13.8331C3.29243 13.5137 3.80841 13.5137 4.12782 13.8331L4.13601 13.8413C4.44724 14.1525 4.45543 14.6685 4.13601 14.9879L3.8166 15.3073Z" fill="#F4B552"/>
</svg>
